<mxfile host="app.diagrams.net" modified="2021-05-05T11:35:15.146Z" agent="5.0 (Windows NT 10.0; Win64; x64) AppleWebKit/537.36 (KHTML, like Gecko) Chrome/90.0.4430.93 Safari/537.36" etag="BQUd4ZcoDF3GNCu4YhhN" version="14.6.10" type="github">
  <diagram id="wZZTaFHOi4w8uRhWg7vS" name="Page-1">
    <mxGraphModel dx="1422" dy="772" grid="1" gridSize="10" guides="1" tooltips="1" connect="1" arrows="1" fold="1" page="1" pageScale="1" pageWidth="827" pageHeight="1169" math="0" shadow="0">
      <root>
        <mxCell id="0" />
        <mxCell id="1" parent="0" />
        <mxCell id="kcSLnCurPmizvUmvL2Kj-3" style="edgeStyle=orthogonalEdgeStyle;rounded=0;orthogonalLoop=1;jettySize=auto;html=1;startArrow=none;" parent="1" source="kcSLnCurPmizvUmvL2Kj-19" target="kcSLnCurPmizvUmvL2Kj-6" edge="1">
          <mxGeometry relative="1" as="geometry" />
        </mxCell>
        <mxCell id="kcSLnCurPmizvUmvL2Kj-4" value="&lt;p style=&quot;margin: 0px ; margin-top: 4px ; text-align: center&quot;&gt;&lt;b&gt;Carport&lt;/b&gt;&lt;/p&gt;&lt;hr size=&quot;1&quot;&gt;&lt;p style=&quot;margin: 0px ; margin-left: 4px&quot;&gt;roofType&lt;/p&gt;&lt;p style=&quot;margin: 0px ; margin-left: 4px&quot;&gt;decor&lt;/p&gt;&lt;p style=&quot;margin: 0px ; margin-left: 4px&quot;&gt;roofAngle&lt;/p&gt;&lt;p style=&quot;margin: 0px ; margin-left: 4px&quot;&gt;width&lt;/p&gt;&lt;p style=&quot;margin: 0px ; margin-left: 4px&quot;&gt;length&lt;/p&gt;&lt;p style=&quot;margin: 0px ; margin-left: 4px&quot;&gt;shedWidth&lt;/p&gt;&lt;p style=&quot;margin: 0px ; margin-left: 4px&quot;&gt;shedLength&lt;/p&gt;&lt;p style=&quot;margin: 0px ; margin-left: 4px&quot;&gt;billOfMaterials&lt;/p&gt;&lt;p style=&quot;margin: 0px ; margin-left: 4px&quot;&gt;&lt;span&gt;wholesalePrice&lt;/span&gt;&lt;/p&gt;&lt;p style=&quot;margin: 0px ; margin-left: 4px&quot;&gt;recommendedPrice&lt;/p&gt;&lt;p style=&quot;margin: 0px ; margin-left: 4px&quot;&gt;&lt;br&gt;&lt;/p&gt;&lt;p style=&quot;margin: 0px ; margin-left: 4px&quot;&gt;&lt;/p&gt;" style="verticalAlign=top;align=left;overflow=fill;fontSize=12;fontFamily=Helvetica;html=1;" parent="1" vertex="1">
          <mxGeometry x="40" y="40" width="160" height="200" as="geometry" />
        </mxCell>
        <mxCell id="kcSLnCurPmizvUmvL2Kj-5" style="edgeStyle=orthogonalEdgeStyle;rounded=0;orthogonalLoop=1;jettySize=auto;html=1;startArrow=none;" parent="1" source="kcSLnCurPmizvUmvL2Kj-17" target="kcSLnCurPmizvUmvL2Kj-7" edge="1">
          <mxGeometry relative="1" as="geometry" />
        </mxCell>
        <mxCell id="kcSLnCurPmizvUmvL2Kj-6" value="&lt;p style=&quot;margin: 0px ; margin-top: 4px ; text-align: center&quot;&gt;&lt;b&gt;BillOfMaterials&lt;/b&gt;&lt;br&gt;&lt;/p&gt;&lt;hr size=&quot;1&quot;&gt;&lt;p style=&quot;margin: 0px ; margin-left: 4px&quot;&gt;materials&lt;/p&gt;&lt;p style=&quot;margin: 0px ; margin-left: 4px&quot;&gt;&lt;/p&gt;" style="verticalAlign=top;align=left;overflow=fill;fontSize=12;fontFamily=Helvetica;html=1;" parent="1" vertex="1">
          <mxGeometry x="40" y="320" width="160" height="80" as="geometry" />
        </mxCell>
        <mxCell id="kcSLnCurPmizvUmvL2Kj-7" value="&lt;p style=&quot;margin: 0px ; margin-top: 4px ; text-align: center&quot;&gt;&lt;b&gt;Material&lt;/b&gt;&lt;br&gt;&lt;/p&gt;&lt;hr size=&quot;1&quot;&gt;&lt;p style=&quot;margin: 0px ; margin-left: 4px&quot;&gt;name&lt;/p&gt;&lt;p style=&quot;margin: 0px ; margin-left: 4px&quot;&gt;price&lt;/p&gt;&lt;p style=&quot;margin: 0px ; margin-left: 4px&quot;&gt;&lt;/p&gt;" style="verticalAlign=top;align=left;overflow=fill;fontSize=12;fontFamily=Helvetica;html=1;" parent="1" vertex="1">
          <mxGeometry x="40" y="480" width="160" height="140" as="geometry" />
        </mxCell>
        <mxCell id="kcSLnCurPmizvUmvL2Kj-8" style="edgeStyle=orthogonalEdgeStyle;rounded=0;orthogonalLoop=1;jettySize=auto;html=1;endArrow=classic;endFill=1;startArrow=none;" parent="1" source="kcSLnCurPmizvUmvL2Kj-26" target="kcSLnCurPmizvUmvL2Kj-4" edge="1">
          <mxGeometry relative="1" as="geometry">
            <Array as="points">
              <mxPoint x="320" y="80" />
              <mxPoint x="320" y="140" />
            </Array>
          </mxGeometry>
        </mxCell>
        <mxCell id="kcSLnCurPmizvUmvL2Kj-9" style="edgeStyle=orthogonalEdgeStyle;rounded=0;orthogonalLoop=1;jettySize=auto;html=1;endArrow=classic;endFill=1;" parent="1" source="kcSLnCurPmizvUmvL2Kj-10" target="kcSLnCurPmizvUmvL2Kj-13" edge="1">
          <mxGeometry relative="1" as="geometry" />
        </mxCell>
        <mxCell id="kcSLnCurPmizvUmvL2Kj-10" value="&lt;p style=&quot;margin: 0px ; margin-top: 4px ; text-align: center&quot;&gt;&lt;b&gt;Query&lt;/b&gt;&lt;br&gt;&lt;/p&gt;&lt;hr size=&quot;1&quot;&gt;&lt;p style=&quot;margin: 0px ; margin-left: 4px&quot;&gt;customer&lt;br&gt;&lt;/p&gt;&lt;p style=&quot;margin: 0px ; margin-left: 4px&quot;&gt;carport&lt;/p&gt;&lt;p style=&quot;margin: 0px ; margin-left: 4px&quot;&gt;message&lt;/p&gt;&lt;p style=&quot;margin: 0px ; margin-left: 4px&quot;&gt;&lt;br&gt;&lt;/p&gt;&lt;p style=&quot;margin: 0px ; margin-left: 4px&quot;&gt;&lt;/p&gt;" style="verticalAlign=top;align=left;overflow=fill;fontSize=12;fontFamily=Helvetica;html=1;" parent="1" vertex="1">
          <mxGeometry x="520" y="40" width="160" height="120" as="geometry" />
        </mxCell>
        <mxCell id="kcSLnCurPmizvUmvL2Kj-11" style="edgeStyle=orthogonalEdgeStyle;rounded=0;orthogonalLoop=1;jettySize=auto;html=1;endArrow=classic;endFill=1;startArrow=none;" parent="1" source="kcSLnCurPmizvUmvL2Kj-22" target="kcSLnCurPmizvUmvL2Kj-10" edge="1">
          <mxGeometry relative="1" as="geometry" />
        </mxCell>
        <mxCell id="kcSLnCurPmizvUmvL2Kj-12" value="&lt;p style=&quot;margin: 0px ; margin-top: 4px ; text-align: center&quot;&gt;&lt;b&gt;Response&lt;/b&gt;&lt;br&gt;&lt;/p&gt;&lt;hr size=&quot;1&quot;&gt;&lt;p style=&quot;margin: 0px ; margin-left: 4px&quot;&gt;query&lt;/p&gt;&lt;p style=&quot;margin: 0px ; margin-left: 4px&quot;&gt;price&lt;/p&gt;&lt;p style=&quot;margin: 0px ; margin-left: 4px&quot;&gt;message&lt;/p&gt;&lt;p style=&quot;margin: 0px ; margin-left: 4px&quot;&gt;&lt;/p&gt;" style="verticalAlign=top;align=left;overflow=fill;fontSize=12;fontFamily=Helvetica;html=1;" parent="1" vertex="1">
          <mxGeometry x="520" y="240" width="160" height="140" as="geometry" />
        </mxCell>
        <mxCell id="kcSLnCurPmizvUmvL2Kj-13" value="&lt;p style=&quot;margin: 0px ; margin-top: 4px ; text-align: center&quot;&gt;&lt;b&gt;Customer&lt;/b&gt;&lt;/p&gt;&lt;hr size=&quot;1&quot;&gt;&lt;p style=&quot;margin: 0px 0px 0px 4px&quot;&gt;name&lt;/p&gt;&lt;p style=&quot;margin: 0px 0px 0px 4px&quot;&gt;email&lt;/p&gt;&lt;p style=&quot;margin: 0px 0px 0px 4px&quot;&gt;phone&lt;/p&gt;&lt;p style=&quot;margin: 0px ; margin-left: 4px&quot;&gt;postalCode&lt;/p&gt;&lt;p style=&quot;margin: 0px ; margin-left: 4px&quot;&gt;town&lt;/p&gt;&lt;p style=&quot;margin: 0px ; margin-left: 4px&quot;&gt;address&lt;/p&gt;&lt;p style=&quot;margin: 0px ; margin-left: 4px&quot;&gt;&lt;br&gt;&lt;/p&gt;&lt;p style=&quot;margin: 0px ; margin-left: 4px&quot;&gt;&lt;br&gt;&lt;/p&gt;&lt;p style=&quot;margin: 0px ; margin-left: 4px&quot;&gt;&lt;/p&gt;" style="verticalAlign=top;align=left;overflow=fill;fontSize=12;fontFamily=Helvetica;html=1;" parent="1" vertex="1">
          <mxGeometry x="280" y="160" width="160" height="160" as="geometry" />
        </mxCell>
        <mxCell id="kcSLnCurPmizvUmvL2Kj-14" style="edgeStyle=orthogonalEdgeStyle;rounded=0;orthogonalLoop=1;jettySize=auto;html=1;endArrow=classic;endFill=1;startArrow=none;" parent="1" source="kcSLnCurPmizvUmvL2Kj-24" target="kcSLnCurPmizvUmvL2Kj-12" edge="1">
          <mxGeometry relative="1" as="geometry">
            <Array as="points">
              <mxPoint x="600" y="450" />
            </Array>
          </mxGeometry>
        </mxCell>
        <mxCell id="kcSLnCurPmizvUmvL2Kj-15" value="&lt;p style=&quot;margin: 0px ; margin-top: 4px ; text-align: center&quot;&gt;&lt;b&gt;Employee&lt;/b&gt;&lt;/p&gt;&lt;hr size=&quot;1&quot;&gt;&lt;p style=&quot;margin: 0px 0px 0px 4px&quot;&gt;name&lt;/p&gt;&lt;p style=&quot;margin: 0px 0px 0px 4px&quot;&gt;email&lt;/p&gt;&lt;p style=&quot;margin: 0px 0px 0px 4px&quot;&gt;phone&lt;/p&gt;&lt;p style=&quot;margin: 0px ; margin-left: 4px&quot;&gt;password&lt;/p&gt;&lt;p style=&quot;margin: 0px ; margin-left: 4px&quot;&gt;&lt;/p&gt;" style="verticalAlign=top;align=left;overflow=fill;fontSize=12;fontFamily=Helvetica;html=1;" parent="1" vertex="1">
          <mxGeometry x="280" y="400" width="160" height="100" as="geometry" />
        </mxCell>
        <mxCell id="kcSLnCurPmizvUmvL2Kj-16" value="" style="edgeStyle=orthogonalEdgeStyle;rounded=0;orthogonalLoop=1;jettySize=auto;html=1;endArrow=none;endFill=0;" parent="1" source="kcSLnCurPmizvUmvL2Kj-17" target="kcSLnCurPmizvUmvL2Kj-7" edge="1">
          <mxGeometry relative="1" as="geometry" />
        </mxCell>
        <mxCell id="kcSLnCurPmizvUmvL2Kj-17" value="contains" style="text;html=1;strokeColor=none;fillColor=none;align=center;verticalAlign=middle;whiteSpace=wrap;rounded=0;" parent="1" vertex="1">
          <mxGeometry x="100" y="430" width="40" height="20" as="geometry" />
        </mxCell>
        <mxCell id="kcSLnCurPmizvUmvL2Kj-18" value="" style="edgeStyle=orthogonalEdgeStyle;rounded=0;orthogonalLoop=1;jettySize=auto;html=1;endArrow=none;" parent="1" source="kcSLnCurPmizvUmvL2Kj-6" target="kcSLnCurPmizvUmvL2Kj-17" edge="1">
          <mxGeometry relative="1" as="geometry">
            <mxPoint x="140.0588235294117" y="460" as="sourcePoint" />
            <mxPoint x="160.0588235294117" y="520" as="targetPoint" />
          </mxGeometry>
        </mxCell>
        <mxCell id="kcSLnCurPmizvUmvL2Kj-19" value="contains" style="text;html=1;strokeColor=none;fillColor=none;align=center;verticalAlign=middle;whiteSpace=wrap;rounded=0;" parent="1" vertex="1">
          <mxGeometry x="100" y="270" width="40" height="20" as="geometry" />
        </mxCell>
        <mxCell id="kcSLnCurPmizvUmvL2Kj-20" value="" style="edgeStyle=orthogonalEdgeStyle;rounded=0;orthogonalLoop=1;jettySize=auto;html=1;endArrow=none;" parent="1" source="kcSLnCurPmizvUmvL2Kj-4" target="kcSLnCurPmizvUmvL2Kj-19" edge="1">
          <mxGeometry relative="1" as="geometry">
            <mxPoint x="120" y="210" as="sourcePoint" />
            <mxPoint x="140" y="320" as="targetPoint" />
          </mxGeometry>
        </mxCell>
        <mxCell id="kcSLnCurPmizvUmvL2Kj-21" value="0..*" style="text;html=1;strokeColor=none;fillColor=none;align=center;verticalAlign=middle;whiteSpace=wrap;rounded=0;" parent="1" vertex="1">
          <mxGeometry x="599" y="380" width="40" height="20" as="geometry" />
        </mxCell>
        <mxCell id="kcSLnCurPmizvUmvL2Kj-22" value="responds" style="text;html=1;strokeColor=none;fillColor=none;align=center;verticalAlign=middle;whiteSpace=wrap;rounded=0;" parent="1" vertex="1">
          <mxGeometry x="580" y="190" width="40" height="20" as="geometry" />
        </mxCell>
        <mxCell id="kcSLnCurPmizvUmvL2Kj-23" value="" style="edgeStyle=orthogonalEdgeStyle;rounded=0;orthogonalLoop=1;jettySize=auto;html=1;endArrow=none;endFill=1;" parent="1" source="kcSLnCurPmizvUmvL2Kj-12" target="kcSLnCurPmizvUmvL2Kj-22" edge="1">
          <mxGeometry relative="1" as="geometry">
            <mxPoint x="600" y="240" as="sourcePoint" />
            <mxPoint x="600" y="160" as="targetPoint" />
          </mxGeometry>
        </mxCell>
        <mxCell id="kcSLnCurPmizvUmvL2Kj-24" value="sends" style="text;html=1;strokeColor=none;fillColor=none;align=center;verticalAlign=middle;whiteSpace=wrap;rounded=0;" parent="1" vertex="1">
          <mxGeometry x="500" y="440" width="40" height="20" as="geometry" />
        </mxCell>
        <mxCell id="kcSLnCurPmizvUmvL2Kj-25" value="" style="edgeStyle=orthogonalEdgeStyle;rounded=0;orthogonalLoop=1;jettySize=auto;html=1;endArrow=none;endFill=1;" parent="1" source="kcSLnCurPmizvUmvL2Kj-15" target="kcSLnCurPmizvUmvL2Kj-24" edge="1">
          <mxGeometry relative="1" as="geometry">
            <mxPoint x="440" y="450" as="sourcePoint" />
            <mxPoint x="600" y="380" as="targetPoint" />
          </mxGeometry>
        </mxCell>
        <mxCell id="kcSLnCurPmizvUmvL2Kj-26" value="contains" style="text;html=1;strokeColor=none;fillColor=none;align=center;verticalAlign=middle;whiteSpace=wrap;rounded=0;" parent="1" vertex="1">
          <mxGeometry x="340" y="70" width="40" height="20" as="geometry" />
        </mxCell>
        <mxCell id="kcSLnCurPmizvUmvL2Kj-27" value="" style="edgeStyle=orthogonalEdgeStyle;rounded=0;orthogonalLoop=1;jettySize=auto;html=1;endArrow=none;endFill=1;" parent="1" source="kcSLnCurPmizvUmvL2Kj-10" target="kcSLnCurPmizvUmvL2Kj-26" edge="1">
          <mxGeometry relative="1" as="geometry">
            <mxPoint x="520" y="80" as="sourcePoint" />
            <mxPoint x="200" y="80" as="targetPoint" />
            <Array as="points">
              <mxPoint x="440" y="80" />
            </Array>
          </mxGeometry>
        </mxCell>
        <mxCell id="kcSLnCurPmizvUmvL2Kj-28" value="1" style="text;html=1;strokeColor=none;fillColor=none;align=center;verticalAlign=middle;whiteSpace=wrap;rounded=0;" parent="1" vertex="1">
          <mxGeometry x="430" y="451" width="40" height="20" as="geometry" />
        </mxCell>
        <mxCell id="kcSLnCurPmizvUmvL2Kj-29" value="1" style="text;html=1;strokeColor=none;fillColor=none;align=center;verticalAlign=middle;whiteSpace=wrap;rounded=0;" parent="1" vertex="1">
          <mxGeometry x="593" y="160" width="40" height="20" as="geometry" />
        </mxCell>
        <mxCell id="kcSLnCurPmizvUmvL2Kj-30" value="1" style="text;html=1;strokeColor=none;fillColor=none;align=center;verticalAlign=middle;whiteSpace=wrap;rounded=0;" parent="1" vertex="1">
          <mxGeometry x="593" y="220" width="40" height="20" as="geometry" />
        </mxCell>
        <mxCell id="kcSLnCurPmizvUmvL2Kj-31" value="0..*" style="text;html=1;strokeColor=none;fillColor=none;align=center;verticalAlign=middle;whiteSpace=wrap;rounded=0;" parent="1" vertex="1">
          <mxGeometry x="480" y="60" width="40" height="20" as="geometry" />
        </mxCell>
        <mxCell id="kcSLnCurPmizvUmvL2Kj-32" value="1" style="text;html=1;strokeColor=none;fillColor=none;align=center;verticalAlign=middle;whiteSpace=wrap;rounded=0;" parent="1" vertex="1">
          <mxGeometry x="196" y="120" width="40" height="20" as="geometry" />
        </mxCell>
        <mxCell id="K1q8ecibvTf_HZwdPoSe-1" value="1" style="text;html=1;strokeColor=none;fillColor=none;align=center;verticalAlign=middle;whiteSpace=wrap;rounded=0;" vertex="1" parent="1">
          <mxGeometry x="110" y="400" width="40" height="20" as="geometry" />
        </mxCell>
        <mxCell id="K1q8ecibvTf_HZwdPoSe-2" value="0..*" style="text;html=1;strokeColor=none;fillColor=none;align=center;verticalAlign=middle;whiteSpace=wrap;rounded=0;" vertex="1" parent="1">
          <mxGeometry x="120" y="460" width="40" height="20" as="geometry" />
        </mxCell>
        <mxCell id="K1q8ecibvTf_HZwdPoSe-3" value="1" style="text;html=1;strokeColor=none;fillColor=none;align=center;verticalAlign=middle;whiteSpace=wrap;rounded=0;" vertex="1" parent="1">
          <mxGeometry x="480" y="100" width="40" height="20" as="geometry" />
        </mxCell>
        <mxCell id="K1q8ecibvTf_HZwdPoSe-5" value="1" style="text;html=1;strokeColor=none;fillColor=none;align=center;verticalAlign=middle;whiteSpace=wrap;rounded=0;" vertex="1" parent="1">
          <mxGeometry x="440" y="220" width="40" height="20" as="geometry" />
        </mxCell>
      </root>
    </mxGraphModel>
  </diagram>
</mxfile>
